<?xml version="1.0" encoding="UTF-8"?>
<svg id="Layer_2" data-name="Layer 2" xmlns="http://www.w3.org/2000/svg" xmlns:xlink="http://www.w3.org/1999/xlink" viewBox="0 0 275.36 579.93">
  <defs>
    <style>
      .cls-1 {
        fill: #a87a50;
      }

      .cls-1, .cls-2, .cls-3, .cls-4, .cls-5, .cls-6, .cls-7, .cls-8, .cls-9, .cls-10, .cls-11, .cls-12, .cls-13, .cls-14 {
        fill-rule: evenodd;
      }

      .cls-2, .cls-3 {
        fill: #fff;
      }

      .cls-2, .cls-4, .cls-9, .cls-10, .cls-15, .cls-11, .cls-12 {
        stroke-miterlimit: 2.61;
      }

      .cls-2, .cls-4, .cls-9, .cls-10, .cls-11, .cls-12 {
        stroke: #231f20;
      }

      .cls-2, .cls-4, .cls-10, .cls-11, .cls-12 {
        stroke-width: .5px;
      }

      .cls-4 {
        fill: #232323;
      }

      .cls-5 {
        fill: url(#linear-gradient-2);
      }

      .cls-6 {
        fill: url(#linear-gradient);
      }

      .cls-7, .cls-10 {
        fill: #231f20;
      }

      .cls-8 {
        fill: #939598;
      }

      .cls-9, .cls-15 {
        stroke-width: 1.5px;
      }

      .cls-9, .cls-14 {
        fill: #1375bc;
      }

      .cls-15 {
        fill: none;
        stroke: #fff;
        stroke-dasharray: 0 0 3 1.5;
      }

      .cls-11 {
        fill: #414042;
      }

      .cls-12 {
        fill: #00aeef;
      }

      .cls-13 {
        fill: url(#linear-gradient-3);
      }
    </style>
    <linearGradient id="linear-gradient" x1="4.6" y1="436.8" x2="45.76" y2="436.8" gradientUnits="userSpaceOnUse">
      <stop offset="0" stop-color="#ffdf2a"/>
      <stop offset=".31" stop-color="#ffdf2a"/>
      <stop offset="1" stop-color="#ffdf2a"/>
    </linearGradient>
    <linearGradient id="linear-gradient-2" x1="229.35" y1="418.26" x2="264.58" y2="418.26" xlink:href="#linear-gradient"/>
    <linearGradient id="linear-gradient-3" x1="32.49" y1="290.66" x2="249.58" y2="290.66" xlink:href="#linear-gradient"/>
  </defs>
  <g id="Layer_1-2" data-name="Layer 1">
    <g>
      <path class="cls-6" d="M34.75,374.53s-16.73,32.3-21.57,49.3c-4.84,17-9.68,31.03-8.36,47.17,1.32,16.15,1.32,27.2,1.32,27.2l21.13,.85s-.44-13.6-.88-23.8c-.44-10.2,.44-17.42,3.52-27.62,3.08-10.2,7.48-25.08,10.12-30.18,2.64-5.1,5.72-13.6,5.72-13.6l-11-29.32h0Z"/>
      <path class="cls-5" d="M244.12,362.24s12.22,36.45,14.96,58.96c2.74,22.51,5.51,46.1,5.51,46.1l-20.19,6.97s-7.85-33.23-9.44-53.07c-1.6-19.83-16.15-23.05,9.16-58.96h0Z"/>
      <path class="cls-13" d="M139.08,69.65h0c58.23,0,105.87,48.92,105.87,108.72v174.17c4.79,116.09,26.54,155.33-92.86,158.92-122.93,3.7-121.81-40.75-118.77-151.46l-.11-181.64c-.03-59.8,47.64-108.72,105.87-108.72h0Z"/>
      <path class="cls-7" d="M138.66,75.33l1.81-.23c-3.91-23.93-15.68-44.33-38-54.06,0,0,30.99,12.89,36.19,54.29h0Z"/>
      <path class="cls-7" d="M118.07,12.89c15.13,12.67,20.27,44.19,21.49,62.43h2.04s-2.94-45.92-23.53-62.43h0Z"/>
      <path class="cls-7" d="M112.19,0s19.91,16.06,24.2,36.42c4.3,20.36,4.07,38.91,4.07,38.91h2.26S147.48,25.79,112.19,0h0Z"/>
      <path class="cls-7" d="M143.71,75.33l-1.66-.2c3.59-21.06,10.5-36.3,30.51-47.58,0,0-24.09,11.35-28.86,47.77h0Z"/>
      <path class="cls-7" d="M174.4,18.32s-16.29,11.76-23.3,26.01c-7.01,14.25-7.92,30.99-7.92,30.99l-1.81,.23s-.45-36.65,33.03-57.23h0Z"/>
      <path class="cls-7" d="M173.69,0s-20.66,16.06-25.91,36.42c-5.25,20.36-5.89,38.91-5.89,38.91h-2.26S137.2,25.79,173.69,0h0Z"/>
      <path class="cls-7" d="M135.49,7.01s5.88,14.25,5.66,32.8c-.23,18.55-.23,36.42-.23,36.42l1.81-.23s3.84-50.67-7.24-68.99h0Z"/>
      <path class="cls-7" d="M155.11,7.01s-9.02,14.25-10.09,32.8c-1.07,18.55-2.4,36.42-2.4,36.42l-2.43-.23s-1.43-50.67,14.92-68.99h0Z"/>
      <path class="cls-7" d="M125.21,7.01s9.67,14.25,11.67,32.8c2,18.55,4.23,36.42,4.23,36.42l2.4-.23s-1.14-50.67-18.3-68.99h0Z"/>
      <path class="cls-10" d="M2.21,497.18s-1.01,2.02,0,5.88c1.01,3.87,2.19,5.88,1.85,9.25-.34,3.36-1.01,2.02-.67,3.7,.34,1.68-.17,3.7-.17,5.38s3.87,16.14,5.88,19.67l2.02,3.53s.84,10.42,8.91,11.26c8.07,.84,9.25-3.36,9.25-3.36,0,0,9.58,16.31,20.17,7.06,10.59-9.25,6.22-16.3,6.22-16.3,0,0,11.6,.67,11.77-13.28,.17-13.95-18.83-12.1-18.83-12.1,0,0-7.73-5.04-11.93-7.06-4.2-2.02-5.71-.67-5.71-.67l-1.18-1.34s2.52-2.35,2.52-5.88,.17-5.38,.17-5.38c0,0,3.53-2.35-1.34-2.86-4.88-.5-8.41-1.34-18.83-1.68-10.42-.34-14.96,1.68-10.09,4.2h0Z"/>
      <path class="cls-7" d="M96.84,267.79c26.18,23.06,54.98,23.89,85.13,3.52-15.04,11.22-46.6,37.97-85.13-3.52h0Z"/>
      <path class="cls-10" d="M266.63,460.71s2.91-.91,2.91,0-2.36,1.09-1.63,3.45c.73,2.36,0,5.09,.18,9.08,.18,4,.73,11.27,2.36,15.26,1.64,4,5.81,18.71,4.36,25.44-1.45,6.72-1.45,8.18-3.63,10.54-2.18,2.36-4.54,2.18-4.54,2.18,0,0-1.09,7.27-4.36,8.54s-3.82,.91-3.82,.91c0,0-4.18,6-10.36,3.45-6.18-2.54-6.18-3.63-6.18-3.63,0,0-10.36-2.36-12.9-10.36-2.54-7.99,2.91-13.08,6.18-13.26l3.27-.18s.36-7.81,4.18-15.26c3.82-7.45,5.63-9.45,4.91-10.36-.73-.91-4.18-4-5.45-11.08-1.27-7.09-1.09-7.27-1.09-7.27,0,0,17.26-1.45,25.62-7.45h0Z"/>
      <path class="cls-10" d="M104.73,553.57s-13.29,3.92-15.68,10.67c-2.39,6.75,.05,8.69,.05,8.69,0,0,4.57,1.44,17.45,1.19,12.88-.25,16.97-1.26,20.04-3.78,3.07-2.52,2.49-3.53,6.54-3.9,4.05-.37,5.04-.78,5.26-3.98,.22-3.2-.6-10.01-.6-10.01l-33.04,1.12h0Z"/>
      <path class="cls-10" d="M147.85,552.21s-2.29,7.83-1.33,10.1c.97,2.27,3.46,1.04,8.23,1.64s9.31,2.14,14.65,3.87c5.33,1.73,8.01,2.44,23.91,2,15.9-.44,15.61-.93,16.51-2.36,.9-1.43,1.85-8.32-5.16-11.37-7.01-3.05-10.64-3.78-15.1-4.21-4.46-.42-3.46-3.29-3.46-3.29,0,0-15.29,3.19-38.24,3.62h0Z"/>
      <path class="cls-4" d="M87.27,573.76l.7,3.91s5.88,3.46,21.46,1.3c15.58-2.15,22.13-6.21,22.13-6.21l2.05,.62s3.54-.08,4.74-1.12c1.2-1.04,1.15-2.65,.97-4.76l-.18-2.1s-.68,0-1.86,.04c-.77,.61-2.05,.81-4.16,1-4.04,.37-3.47,1.37-6.54,3.9-3.07,2.53-7.16,3.53-20.04,3.78-12.88,.25-17.45-1.19-17.45-1.19,0,0-.2-.16-.43-.54-.44,.4-.91,.86-1.4,1.38h0Z"/>
      <path class="cls-4" d="M145.23,564.86s-1.61,4.79,1.22,5.66c2.83,.87,10.84,.89,10.84,.89l1.55-1.57s5.75,.29,9.14,2.3c3.39,2.01,4.89,3.49,18.85,3.33,13.96-.16,18.96-.69,21.43-1.6,2.47-.91,2.02-1.4,2.12-2.85,.1-1.45,.47-2.24,.47-2.24l-1.69-.45c-.99,.79-3.68,1.16-15.85,1.49-15.9,.44-18.58-.27-23.91-2-5.33-1.73-9.88-3.28-14.65-3.87s-7.26,.64-8.23-1.64l-.03-.08c-.74,.68-1.19,1.54-1.26,2.62h0Z"/>
      <path class="cls-14" d="M74.36,364.19l4.84,93.77c-20.85-1.58-37.01-8.72-45.63-21.89,0,0-1.59,59.08,27.29,72.62,28.89,13.54,35.25,21.65,37.73,32.63,2.48,10.98,.41,10.98,4.55,12.29,4.14,1.32,21.66,1.4,27.45,1.4s8.69-1.32,9.93-7.9c1.24-6.59,.45-16.16-.25-20.04-.95-5.23,5.45-5.14,4.69,.1-.57,3.9-.97,13.36,.27,19.94s4.14,7.9,9.93,7.9,23.99-.09,28.12-1.4c4.14-1.32,2.07-1.32,4.55-12.29,2.48-10.98,6.31-18.91,37.73-32.63,31.42-13.72,27.29-72.62,27.29-72.62-8.33,10.86-21.9,18.01-45.92,23.33l4.84-95.5c-41.89,24.46-95.53,24.75-137.42,.29h0Z"/>
      <path class="cls-2" d="M77.36,159.32h0c1.73,0,3.15,1.42,3.15,3.15v9.32c0,1.73-1.42,3.15-3.15,3.15h0c-1.73,0-3.15-1.42-3.15-3.15v-9.32c0-1.73,1.42-3.15,3.15-3.15h0Z"/>
      <path class="cls-2" d="M76.81,174.67h0c1.73,0,3.15,1.42,3.15,3.15v9.32c0,1.73-1.42,3.15-3.15,3.15h0c-1.73,0-3.15-1.42-3.15-3.15v-9.32c0-1.73,1.42-3.15,3.15-3.15h0Z"/>
      <path class="cls-10" d="M30.08,170.56s-.27-2.47,13.98-3.29c14.25-.82,19.19-2.47,22.2-2.74,3.01-.27,5.21-3.02,7.13-.55,1.92,2.47,.55,10.69,.27,12.61-.27,1.92-6.85-.27-13.16,.55-6.3,.82-13.43,.27-20.56,1.37-7.13,1.1-9.05,1.1-9.05,1.1,0,0-1.37-2.74-.82-9.05h0Z"/>
      <path class="cls-11" d="M32.82,189.74s-3.29-.27-2.47-4.39c.82-4.11,2.47-6.03,2.47-6.03,0,0,31.52-3.56,36.46-3.02,4.93,.55,3.29,.82,3.84,5.21,.55,4.39-.27,7.13-.27,7.13,0,0-4.11-.27-12.06-.55-7.95-.27-20.28,.55-27.96,1.64h0Z"/>
      <path class="cls-3" d="M140.13,134.1c27.78,0,50.3,16.63,50.3,37.14s-22.52,37.14-50.3,37.14-50.3-16.63-50.3-37.14,22.52-37.14,50.3-37.14h0Z"/>
      <path class="cls-1" d="M140.41,154.66c9.76,0,17.68,7.92,17.68,17.68s-7.92,17.68-17.68,17.68-17.68-7.92-17.68-17.68,7.92-17.68,17.68-17.68h0Z"/>
      <path class="cls-7" d="M140.41,165.07c4.01,0,7.26,3.25,7.26,7.26s-3.25,7.26-7.26,7.26-7.26-3.25-7.26-7.26,3.25-7.26,7.26-7.26h0Z"/>
      <path class="cls-3" d="M138.49,164.25c1.59,0,2.88,1.29,2.88,2.88s-1.29,2.88-2.88,2.88-2.88-1.29-2.88-2.88,1.29-2.88,2.88-2.88h0Z"/>
      <path class="cls-2" d="M204.17,158.46h0c-1.63-.1-3.04,1.23-3.11,2.95l-.42,9.29c-.08,1.73,1.2,3.23,2.83,3.33h0c1.63,.1,3.04-1.23,3.12-2.95l.42-9.29c.08-1.73-1.19-3.23-2.83-3.33h0Z"/>
      <path class="cls-2" d="M203.99,173.8h0c-1.63-.1-3.04,1.23-3.11,2.95l-.42,9.29c-.08,1.73,1.2,3.23,2.83,3.33h0c1.63,.1,3.04-1.23,3.12-2.95l.42-9.29c.08-1.73-1.19-3.23-2.83-3.33h0Z"/>
      <path class="cls-10" d="M248.25,172.49s.37-2.44-13.03-4.12c-13.4-1.67-17.98-3.61-20.81-4.06-2.83-.45-4.77-3.32-6.7-.97-1.92,2.34-1,10.63-.83,12.56,.17,1.93,6.47,.14,12.38,1.33,5.91,1.2,12.65,1.08,19.32,2.6,6.67,1.52,8.48,1.63,8.48,1.63,0,0,1.42-2.65,1.19-8.97h0Z"/>
      <path class="cls-11" d="M244.79,191.46s3.11-.08,2.52-4.23c-.59-4.15-2.05-6.16-2.05-6.16,0,0-29.56-5.44-34.24-5.19-4.68,.25-3.14,.62-3.85,4.96-.72,4.34-.06,7.12-.06,7.12,0,0,3.89-.03,11.4,.18,7.51,.2,19.1,1.76,26.29,3.31h0Z"/>
      <path class="cls-8" d="M142.5,113.36c14.06,.38,26.95,5.44,37.18,13.7,.61-.82,1.61-1.35,2.75-1.35,1.86,0,3.37,1.45,3.37,3.23,0,1.01-.48,1.91-1.23,2.5,11.35,11.31,18.39,26.99,18.39,44.31s-6.97,32.86-18.23,44.16c.5,.56,.8,1.29,.8,2.09,0,1.79-1.51,3.23-3.37,3.23-.9,0-1.73-.34-2.33-.9-9.4,7.62-21.05,12.55-33.79,13.61,.09,.29,.14,.6,.14,.92,0,1.79-1.51,3.23-3.37,3.23s-3.37-1.45-3.37-3.23c0-.25,.03-.49,.08-.72-13.13-.28-25.27-4.65-35.18-11.9-.6,.91-1.65,1.51-2.85,1.51-1.86,0-3.37-1.45-3.37-3.23,0-.96,.44-1.83,1.14-2.42-12.61-11.42-20.54-27.96-20.54-46.36,0-15.82,5.86-30.26,15.52-41.26-.72-.59-1.18-1.47-1.18-2.46,0-1.79,1.51-3.23,3.37-3.23,.95,0,1.8,.37,2.41,.97,9.9-9.13,22.76-15.08,36.97-16.23-.01-.11-.02-.23-.02-.35,0-1.79,1.51-3.23,3.37-3.23s3.37,1.45,3.37,3.23c0,.06,0,.11,0,.16h0Zm-1.68,16.07c25.46,0,46.11,20.74,46.11,46.32s-20.65,46.32-46.11,46.32-46.11-20.74-46.11-46.32,20.65-46.32,46.11-46.32h0Z"/>
      <path class="cls-9" d="M109.48,399.69c18.47,7.08,40.16,8.06,61.92,0,6.67,26.22,1.83,53.86-28.82,55.46-25.49,.7-39.1-13.11-33.11-55.46h0Z"/>
      <path class="cls-15" d="M112.22,403.9c16.52,6.16,37.39,7.11,56.86,.1,3.73,22.6,.76,46.83-26.66,48.22-22.8,.6-34.39-11.59-30.2-48.32h0Z"/>
      <path class="cls-10" d="M141.08,413.45c8.45,0,15.38,6.49,16.08,14.76h-3.84l-12.03-12.03-13.2,13.2,13.2,13.2,11.61-11.61h4.26c-.7,8.26-7.63,14.76-16.08,14.76-8.91,0-16.14-7.22-16.14-16.14s7.23-16.13,16.14-16.13h0Zm0,10.66c2.88,0,5.24,2.23,5.46,5.05h-4.89v1.68h4.76c-.57,2.41-2.74,4.21-5.33,4.21-3.02,0-5.47-2.45-5.47-5.47s2.45-5.47,5.47-5.47h0Zm16.08,4.09h-15.52v.96h15.52v-.96h0Z"/>
      <path class="cls-7" d="M144.95,524.16c25.89,2.39,48.52-2.63,71.92-11.66-19.3,8.54-44.73,17.82-71.92,11.66h0Z"/>
      <path class="cls-7" d="M140.22,524.74c-27.34,2.2-49.36-2.63-72.75-12.85,21.99,10.67,39.72,17.91,72.75,12.85h0Z"/>
      <path class="cls-7" d="M186.89,546.09l-.32,2.13c-.11,.73-7.53,3.5-16.32,.5,0,0,13.2,1.7,16.63-2.64h0Z"/>
      <path class="cls-7" d="M99.49,546.09l.32,2.13c.11,.73,7.53,3.5,16.32,.5,0,0-13.2,1.7-16.63-2.64h0Z"/>
      <path class="cls-7" d="M80.97,458.9s0,15.85-12.03,22.4c-12.03,6.55-19.89,6.04-19.89,6.04,0,0,25.91-3.71,31.92-28.43h0Z"/>
      <path class="cls-7" d="M206.76,458.9s0,15.85,12.03,22.4c12.03,6.55,19.89,6.04,19.89,6.04,0,0-25.91-3.71-31.92-28.43h0Z"/>
      <path class="cls-15" d="M236.18,488.05s-9.71,3.24-20.36-5.09c-10.64-8.33-11.1-20.36-12.03-25.91-.93-5.55,3.24-85.12,3.24-85.12,0,0-20.36,13.88-60.14,15.73-39.78,1.85-67.54-14.6-67.54-14.6l2.78,84.45s2.78,12.49-7.4,21.74c-10.18,9.25-23.13,8.79-23.13,8.79m199.39-44.87c-10.27,10.91-24.92,14.98-38.86,18.97m-176.26-18.97c10.27,10.91,24.92,14.98,38.86,18.97"/>
      <path class="cls-14" d="M245.52,372.95l-.57-22.93c-14.79,14.52-40.29,28.13-62.52,36l5.27,19.32c36.59-13.64,46.86-20.23,57.83-32.39h0Z"/>
      <path class="cls-14" d="M33.14,369.8l.57-22.93c14.79,14.52,40.29,28.13,62.52,36l-5.27,19.32c-36.59-13.64-46.86-20.23-57.83-32.39h0Z"/>
      <path class="cls-15" d="M244.04,356.66s-11.57,9.25-20.36,14.8c-8.79,5.55-36.08,16.19-36.08,16.19l3.24,12.95s19.89-5.6,35.62-15.78c15.73-10.18,17.12-13.83,17.12-13.83m-208.18-18.97s11.57,10.64,26.83,18.97c15.27,8.33,30.07,13.42,30.07,13.42l-4.63,13.42s-25.91-10.64-37.47-17.12c-11.57-6.48-13.88-12.03-13.88-12.03"/>
      <path class="cls-10" d="M83.65,381.43c3.59,.19,6.07,3.19,5.55,6.71-.53,3.52-3.86,6.21-7.45,6.03-3.59-.19-6.07-3.19-5.55-6.71,.53-3.52,3.87-6.21,7.46-6.03h0Z"/>
      <path class="cls-11" d="M83.29,383.83c2.24,.12,3.79,1.99,3.46,4.18-.33,2.19-2.41,3.88-4.65,3.76-2.24-.12-3.79-1.99-3.46-4.18,.33-2.19,2.41-3.87,4.65-3.76h0Z"/>
      <polygon class="cls-12" points="81.97 385.11 83.61 385.11 83.46 387.01 85.45 387.09 85.03 388.72 83.33 388.65 83.18 390.47 81.54 390.47 81.69 388.58 79.69 388.5 80.12 386.87 81.82 386.94 81.97 385.11 81.97 385.11"/>
      <path class="cls-10" d="M194.71,384.7c-3.31,1.46-4.98,5.32-3.73,8.6,1.25,3.29,4.96,4.76,8.27,3.3,3.31-1.46,4.98-5.32,3.73-8.6-1.25-3.29-4.96-4.76-8.27-3.3h0Z"/>
      <path class="cls-11" d="M195.57,386.94c-2.07,.91-3.11,3.32-2.33,5.37,.78,2.05,3.09,2.97,5.16,2.05,2.07-.91,3.11-3.31,2.33-5.36-.78-2.05-3.09-2.97-5.16-2.06h0Z"/>
      <polygon class="cls-12" points="197.08 387.74 195.54 388.33 196.1 390.14 194.25 390.94 195 392.4 196.57 391.72 197.1 393.47 198.64 392.88 198.09 391.07 199.94 390.27 199.18 388.81 197.61 389.49 197.08 387.74 197.08 387.74"/>
    </g>
  </g>
</svg>