<?xml version="1.0" encoding="UTF-8"?>
<svg id="Layer_2" data-name="Layer 2" xmlns="http://www.w3.org/2000/svg" xmlns:xlink="http://www.w3.org/1999/xlink" viewBox="0 0 275.36 489.11">
  <defs>
    <style>
      .cls-1 {
        fill: #a87a50;
      }

      .cls-1, .cls-2, .cls-3, .cls-4, .cls-5, .cls-6, .cls-7, .cls-8, .cls-9, .cls-10, .cls-11, .cls-12, .cls-13, .cls-14 {
        fill-rule: evenodd;
      }

      .cls-2, .cls-3 {
        fill: #fff;
      }

      .cls-2, .cls-4, .cls-9, .cls-10, .cls-15, .cls-11, .cls-12 {
        stroke-miterlimit: 2.61;
      }

      .cls-2, .cls-4, .cls-9, .cls-10, .cls-11, .cls-12 {
        stroke: #231f20;
      }

      .cls-2, .cls-4, .cls-10, .cls-11, .cls-12 {
        stroke-width: .5px;
      }

      .cls-4 {
        fill: #232323;
      }

      .cls-5 {
        fill: url(#linear-gradient-2);
      }

      .cls-6 {
        fill: url(#linear-gradient);
      }

      .cls-7, .cls-10 {
        fill: #231f20;
      }

      .cls-8 {
        fill: #939598;
      }

      .cls-9, .cls-15 {
        stroke-width: 1.5px;
      }

      .cls-9, .cls-14 {
        fill: #1375bc;
      }

      .cls-15 {
        fill: none;
        stroke: #fff;
        stroke-dasharray: 0 0 3 1.5;
      }

      .cls-11 {
        fill: #414042;
      }

      .cls-12 {
        fill: #00aeef;
      }

      .cls-13 {
        fill: url(#linear-gradient-3);
      }
    </style>
    <linearGradient id="linear-gradient" x1="4.59" y1="345.97" x2="45.76" y2="345.97" gradientUnits="userSpaceOnUse">
      <stop offset="0" stop-color="#ffdf2a"/>
      <stop offset=".31" stop-color="#ffdf2a"/>
      <stop offset="1" stop-color="#ffdf2a"/>
    </linearGradient>
    <linearGradient id="linear-gradient-2" x1="229.35" y1="327.43" x2="264.58" y2="327.43" xlink:href="#linear-gradient"/>
    <linearGradient id="linear-gradient-3" x1="32.49" y1="225.76" x2="249.58" y2="225.76" xlink:href="#linear-gradient"/>
  </defs>
  <g id="Layer_1-2" data-name="Layer 1">
    <g>
      <path class="cls-7" d="M184.82,47.05l-1.4-.16c3.02-8.51,12.11-15.39,29.34-17.94,0,0-23.93,3.32-27.95,18.1h0Z"/>
      <path class="cls-7" d="M149.89,34.26l2.07-.72S146.91,13.17,168.74,.2c0,0-20.92,7.03-18.85,34.06h0Z"/>
      <path class="cls-7" d="M171.18,38.19l2.2-.24s-.2-20.52,24.31-28.22c0,0-22.21,2.22-26.51,28.46h0Z"/>
      <path class="cls-7" d="M102.6,39.99l-2.23-.2s-3.86-20.87-29.66-28.16c0,0,22.44,1.77,31.89,28.36h0Z"/>
      <path class="cls-6" d="M34.75,283.71s-16.73,32.3-21.57,49.3c-4.84,17-9.68,31.02-8.36,47.17,1.32,16.15,1.32,27.2,1.32,27.2l21.13,.85s-.44-13.6-.88-23.8c-.44-10.2,.44-17.42,3.52-27.62,3.08-10.2,7.48-25.07,10.12-30.17,2.64-5.1,5.72-13.6,5.72-13.6l-11-29.32h0Z"/>
      <path class="cls-5" d="M244.12,271.42s12.22,36.45,14.96,58.96c2.74,22.51,5.51,46.1,5.51,46.1l-20.19,6.97s-7.85-33.23-9.44-53.07c-1.6-19.83-16.15-23.05,9.16-58.96h0Z"/>
      <path class="cls-13" d="M139.08,30.67h0c58.23,0,105.87,48.93,105.87,108.72v122.32c4.79,116.09,26.54,155.33-92.86,158.92-122.93,3.7-121.81-40.75-118.77-151.46l-.11-129.79c-.05-59.8,47.64-108.72,105.87-108.72h0Z"/>
      <path class="cls-10" d="M2.21,406.36s-1.01,2.02,0,5.88c1.01,3.87,2.18,5.88,1.85,9.25-.34,3.36-1.01,2.02-.67,3.7,.34,1.68-.17,3.7-.17,5.38s3.87,16.14,5.88,19.67l2.02,3.53s.84,10.42,8.91,11.26c8.07,.84,9.25-3.36,9.25-3.36,0,0,9.58,16.3,20.17,7.06,10.59-9.25,6.22-16.3,6.22-16.3,0,0,11.6,.67,11.77-13.28,.17-13.95-18.83-12.1-18.83-12.1,0,0-7.73-5.04-11.93-7.06-4.2-2.02-5.71-.67-5.71-.67l-1.18-1.35s2.52-2.35,2.52-5.88,.17-5.38,.17-5.38c0,0,3.53-2.35-1.34-2.86-4.87-.5-8.41-1.34-18.83-1.68-10.42-.34-14.96,1.68-10.08,4.2h0Z"/>
      <path class="cls-7" d="M96.84,228.82c26.18,23.06,54.98,23.89,85.13,3.52-15.04,11.22-46.6,37.97-85.13-3.52h0Z"/>
      <path class="cls-10" d="M266.63,369.89s2.91-.91,2.91,0-2.36,1.09-1.63,3.45c.73,2.36,0,5.09,.18,9.08,.18,4,.73,11.27,2.36,15.26,1.64,4,5.81,18.71,4.36,25.44-1.45,6.72-1.45,8.18-3.63,10.54-2.18,2.36-4.54,2.18-4.54,2.18,0,0-1.09,7.27-4.36,8.54-3.27,1.27-3.82,.91-3.82,.91,0,0-4.18,6-10.36,3.45-6.18-2.54-6.18-3.63-6.18-3.63,0,0-10.36-2.36-12.9-10.36-2.54-7.99,2.91-13.08,6.18-13.26l3.27-.18s.36-7.81,4.18-15.26c3.82-7.45,5.63-9.45,4.91-10.36-.73-.91-4.18-4-5.45-11.08-1.27-7.09-1.09-7.27-1.09-7.27,0,0,17.26-1.45,25.62-7.45h0Z"/>
      <path class="cls-10" d="M104.73,462.74s-13.29,3.92-15.68,10.67c-2.39,6.75,.05,8.69,.05,8.69,0,0,4.57,1.44,17.45,1.19,12.88-.25,16.97-1.26,20.04-3.78,3.07-2.52,2.49-3.53,6.54-3.9,4.05-.37,5.04-.78,5.26-3.98,.22-3.2-.6-10.01-.6-10.01l-33.04,1.12h0Z"/>
      <path class="cls-10" d="M147.85,461.39s-2.3,7.83-1.33,10.1c.97,2.27,3.46,1.04,8.23,1.64,4.77,.59,9.31,2.14,14.65,3.87,5.33,1.73,8.01,2.44,23.91,2,15.9-.44,15.61-.93,16.51-2.36,.9-1.43,1.85-8.32-5.16-11.37-7.01-3.05-10.64-3.78-15.1-4.21-4.46-.42-3.46-3.29-3.46-3.29,0,0-15.29,3.19-38.24,3.62h0Z"/>
      <path class="cls-4" d="M87.27,482.94l.7,3.91s5.88,3.45,21.46,1.3c15.58-2.15,22.13-6.21,22.13-6.21l2.05,.62s3.54-.08,4.74-1.12c1.2-1.04,1.15-2.66,.97-4.76l-.18-2.1s-.68,0-1.86,.04c-.77,.61-2.05,.81-4.16,1-4.04,.37-3.47,1.37-6.54,3.9-3.07,2.53-7.16,3.53-20.04,3.78-12.88,.25-17.45-1.19-17.45-1.19,0,0-.2-.16-.43-.54-.44,.4-.91,.86-1.4,1.38h0Z"/>
      <path class="cls-4" d="M145.23,474.03s-1.61,4.79,1.22,5.66c2.83,.87,10.84,.89,10.84,.89l1.55-1.57s5.75,.29,9.14,2.3c3.39,2.01,4.89,3.49,18.85,3.33,13.96-.16,18.96-.69,21.43-1.6,2.47-.91,2.02-1.4,2.12-2.85,.1-1.45,.47-2.24,.47-2.24l-1.69-.45c-.99,.79-3.68,1.16-15.85,1.49-15.9,.44-18.58-.27-23.91-2-5.33-1.73-9.88-3.28-14.65-3.87-4.77-.59-7.26,.64-8.23-1.64l-.03-.08c-.74,.68-1.19,1.54-1.26,2.62h0Z"/>
      <path class="cls-14" d="M74.36,273.36l4.84,93.77c-20.85-1.58-37.01-8.72-45.63-21.89,0,0-1.59,59.08,27.29,72.62,28.89,13.54,35.25,21.65,37.73,32.63,2.48,10.98,.41,10.98,4.55,12.29,4.14,1.32,21.66,1.4,27.45,1.4s8.69-1.32,9.93-7.9c1.24-6.59,.45-16.16-.25-20.04-.95-5.23,5.45-5.14,4.68,.1-.57,3.9-.97,13.36,.27,19.94,1.24,6.59,4.14,7.9,9.93,7.9s23.99-.09,28.12-1.4c4.14-1.32,2.07-1.32,4.55-12.29,2.48-10.98,6.31-18.91,37.73-32.63,31.42-13.72,27.29-72.62,27.29-72.62-8.33,10.86-21.9,18.01-45.92,23.33l4.84-95.5c-41.89,24.46-95.53,24.75-137.42,.29h0Z"/>
      <path class="cls-9" d="M109.48,308.86c18.47,7.08,40.16,8.06,61.92,0,6.67,26.22,1.83,53.86-28.82,55.46-25.49,.7-39.1-13.11-33.11-55.46h0Z"/>
      <path class="cls-15" d="M112.22,313.08c16.52,6.16,37.39,7.11,56.86,.1,3.73,22.6,.76,46.83-26.66,48.22-22.8,.6-34.39-11.59-30.2-48.32h0Z"/>
      <path class="cls-10" d="M141.08,322.63c8.45,0,15.38,6.49,16.08,14.76h-3.84l-12.03-12.03-13.2,13.2,13.2,13.2,11.61-11.61h4.26c-.7,8.27-7.63,14.76-16.08,14.76-8.91,0-16.14-7.23-16.14-16.14s7.23-16.13,16.14-16.13h0Zm0,10.66c2.88,0,5.24,2.22,5.46,5.05h-4.89v1.68h4.76c-.57,2.41-2.74,4.21-5.33,4.21-3.02,0-5.47-2.45-5.47-5.47s2.45-5.47,5.47-5.47h0Zm16.08,4.09h-15.52v.96h15.52v-.96h0Z"/>
      <path class="cls-7" d="M144.95,433.34c25.89,2.39,48.52-2.63,71.92-11.66-19.3,8.54-44.73,17.82-71.92,11.66h0Z"/>
      <path class="cls-7" d="M140.22,433.92c-27.34,2.2-49.36-2.63-72.75-12.85,21.99,10.67,39.72,17.91,72.75,12.85h0Z"/>
      <path class="cls-7" d="M186.89,455.27l-.32,2.13c-.11,.73-7.53,3.5-16.32,.5,0,0,13.2,1.7,16.63-2.64h0Z"/>
      <path class="cls-7" d="M99.49,455.27l.32,2.13c.11,.73,7.53,3.5,16.32,.5,0,0-13.2,1.7-16.63-2.64h0Z"/>
      <path class="cls-7" d="M80.97,368.08s0,15.85-12.03,22.4c-12.03,6.55-19.89,6.04-19.89,6.04,0,0,25.91-3.71,31.92-28.43h0Z"/>
      <path class="cls-7" d="M206.76,368.08s0,15.85,12.03,22.4c12.03,6.55,19.89,6.04,19.89,6.04,0,0-25.91-3.71-31.92-28.43h0Z"/>
      <path class="cls-15" d="M236.18,397.22s-9.71,3.24-20.36-5.09c-10.64-8.33-11.1-20.36-12.03-25.91-.93-5.55,3.24-85.12,3.24-85.12,0,0-20.36,13.88-60.14,15.73-39.78,1.85-67.54-14.6-67.54-14.6l2.78,84.45s2.78,12.49-7.4,21.74c-10.18,9.25-23.13,8.79-23.13,8.79m199.39-44.87c-10.27,10.91-24.92,14.98-38.86,18.97m-176.26-18.97c10.27,10.91,24.92,14.98,38.86,18.97"/>
      <path class="cls-14" d="M245.52,282.13l-.58-22.93c-14.79,14.52-40.29,28.14-62.52,36l5.27,19.32c36.59-13.64,46.86-20.23,57.83-32.39h0Z"/>
      <path class="cls-14" d="M33.14,278.98l.57-22.93c14.79,14.52,40.29,28.13,62.52,36l-5.27,19.32c-36.59-13.64-46.86-20.23-57.83-32.39h0Z"/>
      <path class="cls-15" d="M244.04,265.84s-11.57,9.25-20.36,14.8c-8.79,5.55-36.08,16.19-36.08,16.19l3.24,12.95s19.89-5.6,35.62-15.78c15.73-10.18,17.12-13.83,17.12-13.83m-208.18-18.97s11.57,10.64,26.83,18.97c15.27,8.33,30.07,13.42,30.07,13.42l-4.63,13.42s-25.91-10.64-37.47-17.12c-11.57-6.48-13.88-12.03-13.88-12.03"/>
      <path class="cls-10" d="M83.65,290.6c3.59,.19,6.07,3.19,5.55,6.71-.53,3.52-3.87,6.21-7.45,6.03-3.59-.19-6.07-3.19-5.55-6.71,.53-3.52,3.87-6.21,7.45-6.03h0Z"/>
      <path class="cls-11" d="M83.29,293c2.24,.12,3.79,1.99,3.46,4.18-.33,2.19-2.41,3.88-4.65,3.76-2.24-.12-3.79-1.99-3.46-4.18,.33-2.19,2.41-3.87,4.65-3.76h0Z"/>
      <polygon class="cls-12" points="81.96 294.29 83.61 294.29 83.46 296.18 85.45 296.27 85.03 297.9 83.33 297.83 83.18 299.65 81.54 299.65 81.69 297.76 79.69 297.68 80.12 296.04 81.82 296.11 81.96 294.29 81.96 294.29"/>
      <path class="cls-10" d="M194.71,293.88c-3.31,1.46-4.98,5.32-3.73,8.6,1.25,3.29,4.96,4.76,8.27,3.3,3.31-1.46,4.98-5.32,3.73-8.6-1.25-3.29-4.96-4.76-8.27-3.3h0Z"/>
      <path class="cls-11" d="M195.57,296.11c-2.07,.91-3.11,3.32-2.33,5.36,.78,2.05,3.09,2.97,5.16,2.06,2.07-.91,3.11-3.31,2.33-5.36-.78-2.05-3.09-2.97-5.16-2.06h0Z"/>
      <polygon class="cls-12" points="197.08 296.92 195.54 297.5 196.09 299.32 194.25 300.11 195 301.57 196.57 300.9 197.1 302.65 198.64 302.06 198.09 300.25 199.94 299.45 199.18 297.99 197.61 298.67 197.08 296.92 197.08 296.92"/>
      <path class="cls-2" d="M45.32,136.07h0c1.91,0,3.57,1.56,3.69,3.47l.75,11.84c.12,1.91-1.34,3.47-3.26,3.47h0c-1.91,0-3.57-1.56-3.69-3.47l-.75-11.84c-.12-1.91,1.34-3.47,3.26-3.47h0Z"/>
      <path class="cls-2" d="M46.5,154.86h0c1.91,0,3.57,1.56,3.69,3.47l.75,11.84c.12,1.91-1.34,3.47-3.26,3.47h0c-1.91,0-3.57-1.56-3.69-3.47l-.75-11.84c-.12-1.91,1.35-3.47,3.26-3.47h0Z"/>
      <path class="cls-10" d="M24.58,147.91s5.92-1.54,10.3-2.57c4.38-1.03,5.92-3.6,7.46-1.8,1.54,1.8,1.03,10.55,1.03,12.87s-5.4,.77-11.07,1.8c-5.66,1.03-7.98,2.32-8.49,.26-.51-2.06-1.29-6.43,.77-10.55h0Z"/>
      <path class="cls-11" d="M27.93,168.76s5.92-.51,10.04-.51,5.92,1.8,5.92-2.32,.77-9.01-.52-9.27c-1.29-.26-6.18,.26-10.55,1.29-4.37,1.03-8.49,1.29-8.49,1.29,0,0-2.57,7.46,3.6,9.52h0Z"/>
      <path class="cls-10" d="M250.74,140.85s-5.01-.29-8.71-.39c-3.7-.1-5.01-2.35-6.31-.22-1.31,2.13-.87,10.77-.87,13.09s4.57-.37,9.36-.54c4.79-.17,6.75,.63,7.18-1.54,.44-2.17,1.09-6.71-.65-10.39h0Z"/>
      <path class="cls-11" d="M248.55,162.58s-5.22,1.41-8.85,2.74c-3.63,1.34-5.22,3.72-5.22-.39s-.68-8.76,.45-9.43c1.13-.68,5.45-1.75,9.3-2.14,3.86-.39,7.49-1.47,7.49-1.47,0,0,2.27,6.63-3.18,10.69h0Z"/>
      <path class="cls-2" d="M233.69,133.31h0c-1.91,0-3.57,1.56-3.69,3.47l-.75,11.84c-.12,1.91,1.35,3.47,3.26,3.47h0c1.91,0,3.57-1.56,3.69-3.47l.74-11.84c.12-1.91-1.34-3.47-3.26-3.47h0Z"/>
      <path class="cls-2" d="M232.5,152.1h0c-1.91,0-3.57,1.56-3.69,3.47l-.75,11.84c-.12,1.91,1.34,3.48,3.26,3.48h0c1.91,0,3.57-1.56,3.69-3.48l.74-11.84c.12-1.91-1.34-3.47-3.26-3.47h0Z"/>
      <path class="cls-3" d="M94.08,116.47c22.17,0,40.14,13.38,40.14,29.88s-17.98,29.88-40.14,29.88-40.14-13.38-40.14-29.88,17.98-29.88,40.14-29.88h0Z"/>
      <path class="cls-1" d="M101.96,138.31c8.34,0,15.1,6.76,15.1,15.1s-6.76,15.1-15.1,15.1-15.1-6.76-15.1-15.1,6.76-15.1,15.1-15.1h0Z"/>
      <path class="cls-7" d="M101.96,147.21c3.43,0,6.2,2.78,6.2,6.2s-2.78,6.2-6.2,6.2-6.2-2.78-6.2-6.2,2.78-6.2,6.2-6.2h0Z"/>
      <path class="cls-3" d="M100.32,146.51c1.36,0,2.46,1.1,2.46,2.46s-1.1,2.46-2.46,2.46-2.46-1.1-2.46-2.46,1.1-2.46,2.46-2.46h0Z"/>
      <path class="cls-3" d="M182.02,115.43c22.17-.76,40.14,11.67,40.14,27.77s-17.98,29.77-40.14,30.53c-22.17,.76-40.14-11.67-40.14-27.77s17.98-29.77,40.14-30.54h0Z"/>
      <path class="cls-1" d="M175.19,138.31c8.34,0,15.1,6.76,15.1,15.1s-6.76,15.1-15.1,15.1-15.1-6.76-15.1-15.1,6.76-15.1,15.1-15.1h0Z"/>
      <path class="cls-7" d="M175.19,147.21c3.43,0,6.2,2.78,6.2,6.2s-2.78,6.2-6.2,6.2-6.2-2.78-6.2-6.2,2.78-6.2,6.2-6.2h0Z"/>
      <path class="cls-3" d="M173.55,146.51c1.36,0,2.46,1.1,2.46,2.46s-1.1,2.46-2.46,2.46-2.46-1.1-2.46-2.46,1.1-2.46,2.46-2.46h0Z"/>
      <path class="cls-8" d="M95.11,98.75c18.21,0,34.19,9.56,43.2,23.93,8.7-15.65,25.4-26.24,44.57-26.24,28.14,0,50.96,22.82,50.96,50.96s-22.82,50.96-50.96,50.96c-18.21,0-34.19-9.56-43.2-23.93-8.7,15.65-25.4,26.24-44.57,26.24-28.14,0-50.96-22.82-50.96-50.96s22.82-50.96,50.96-50.96h0Zm87.77,10.55c21.03,0,38.09,17.06,38.09,38.09s-17.06,38.09-38.09,38.09-38.09-17.06-38.09-38.09,17.06-38.09,38.09-38.09h0Zm-87.77,2.32c21.03,0,38.09,17.06,38.09,38.09s-17.06,38.09-38.09,38.09-38.09-17.06-38.09-38.09,17.06-38.09,38.09-38.09h0Z"/>
      <path class="cls-7" d="M63.32,77.05l1.44-.21c-3.12-8.4-12.49-14.97-30.27-16.92,0,0,24.68,2.49,28.83,17.13h0Z"/>
      <path class="cls-7" d="M90.21,56.18l1.44-.02c-3.12-8.8-12.49-16.58-30.27-20.83,0,0,24.68,5.68,28.83,20.86h0Z"/>
      <path class="cls-7" d="M189.8,49.61l-.91-.38c3.91-8.04,11.58-13.51,23.83-13.36,0,0-16.95-.43-22.91,13.74h0Z"/>
      <path class="cls-7" d="M216.37,68.85l-1.67-.4c3.62-7.99,14.51-13.33,35.17-12.94,0,0-28.68-.76-33.5,13.34h0Z"/>
      <path class="cls-7" d="M198.72,57.01l-1.93-.4c4.17-7.99,16.69-13.33,40.46-12.94,0,0-33-.76-38.53,13.34h0Z"/>
      <path class="cls-7" d="M143.69,37.64l2.07-.8s-5.06-22.51,16.78-36.85c0,0-20.92,7.77-18.85,37.64h0Z"/>
      <path class="cls-7" d="M109.8,41.77l-2.26-.27s-4.76-22.94-31.14-31.55c0,0,22.75,2.48,33.4,31.82h0Z"/>
      <path class="cls-7" d="M119.69,37.59l-2.26-.25s-4.76-20.93-31.14-28.77c0,0,22.75,2.26,33.4,29.02h0Z"/>
      <path class="cls-7" d="M164.52,38.19l2.16-.23s-3.89-19.21,19.24-26.41c0,0-21.81,2.08-21.39,26.64h0Z"/>
      <path class="cls-7" d="M131.96,49.19h2.07c-1.6-12.64-8.09-18.44-11.72-20.69,0,0,10.12,7.59,9.66,20.69h0Z"/>
      <path class="cls-7" d="M124.15,35.86h2.07c-1.6-8.29-8.09-12.09-11.72-13.56,0,0,10.12,4.97,9.66,13.56h0Z"/>
      <path class="cls-7" d="M81.48,48.96l1.44-.17c-5.26-9.43-16.53-17.1-35.35-20.06,0,0,26.07,3.85,33.91,20.22h0Z"/>
      <path class="cls-7" d="M67.86,63.51l1.63-.56c-4.37-7.61-15.72-11.88-36.25-9.52,0,0,28.48-3.49,34.62,10.08h0Z"/>
      <path class="cls-7" d="M54.8,79.83l1.3-.71c-4.57-5.71-14.62-7.57-31.61-2.52,0,0,23.54-7.21,30.31,3.23h0Z"/>
      <path class="cls-7" d="M70.77,62.25l1.44-.33c-3.12-8.15-12.49-13.95-30.27-14.46,0,0,24.68,.48,28.83,14.79h0Z"/>
      <path class="cls-7" d="M206,63.51l-1.63-.56c4.37-7.61,15.72-11.88,36.25-9.52,0,0-28.48-3.49-34.62,10.08h0Z"/>
      <path class="cls-7" d="M203.1,62.25l-1.44-.33c3.12-8.15,12.49-13.95,30.27-14.46,0,0-24.68,.48-28.83,14.79h0Z"/>
    </g>
  </g>
</svg>